<?xml version="1.0" encoding="UTF-8"?>
<svg id="Layer_1" xmlns="http://www.w3.org/2000/svg" version="1.1" viewBox="0 0 256 52">
  <!-- Generator: Adobe Illustrator 30.2.1, SVG Export Plug-In . SVG Version: 2.1.1 Build 1)  -->
  <defs>
    <style>
      .st0 {
        fill: none;
        stroke: #966037;
      }

      .st0, .st1 {
        stroke-width: .7px;
      }

      .st1 {
        fill: #966037;
        stroke: #fff;
      }
    </style>
  </defs>
  <path class="st0" d="M229.6,1.4c.1-.3.5-.3.6,0l6.7,13.6c.2.3.4.5.8.6l15,2.2c.3,0,.4.4.2.6l-10.9,10.6c-.2.2-.3.5-.3.8h0c0,.1,2.6,15.1,2.6,15.1,0,.3-.3.5-.5.4l-13.4-7.1c-.3-.2-.7-.2-1,0l-13.4,7.1c-.3.1-.6,0-.5-.4l2.6-15c0-.3,0-.7-.3-.9l-10.9-10.6c-.2-.2,0-.6.2-.6l15-2.2c.3,0,.6-.3.8-.6l6.7-13.6Z"/>
  <path class="st0" d="M178.5,1.4c.1-.3.5-.3.6,0l6.7,13.6c.2.3.4.5.8.6l15,2.2c.3,0,.4.4.2.6l-10.9,10.6c-.2.2-.3.5-.3.8h0c0,.1,2.6,15.1,2.6,15.1,0,.3-.3.5-.5.4l-13.4-7.1c-.3-.2-.7-.2-1,0l-13.4,7.1c-.3.1-.6,0-.5-.4l2.6-15c0-.3,0-.7-.3-.9l-10.9-10.6c-.2-.2,0-.6.2-.6l15-2.2c.3,0,.6-.3.8-.6l6.7-13.6Z"/>
  <path class="st0" d="M127.4,1.4c.1-.3.5-.3.6,0l6.7,13.6c.2.3.4.5.8.6l15,2.2c.3,0,.4.4.2.6l-10.9,10.6c-.2.2-.3.5-.3.8h0c0,.1,2.6,15.1,2.6,15.1,0,.3-.3.5-.5.4l-13.4-7.1c-.3-.2-.7-.2-1,0l-13.4,7.1c-.3.1-.6,0-.5-.4l2.6-15c0-.3,0-.7-.3-.9l-10.9-10.6c-.2-.2,0-.6.2-.6l15-2.2c.3,0,.6-.3.8-.6l6.7-13.6Z"/>
  <path class="st1" d="M76.3,1.4c.1-.3.5-.3.6,0l6.7,13.6c.2.3.4.5.8.6l15,2.2c.3,0,.4.4.2.6l-10.9,10.6c-.2.2-.3.5-.3.8h0c0,.1,2.6,15.1,2.6,15.1,0,.3-.3.5-.5.4l-13.4-7.1c-.3-.2-.7-.2-1,0l-13.4,7.1c-.3.1-.6,0-.5-.4l2.6-15c0-.3,0-.7-.3-.9l-10.9-10.6c-.2-.2,0-.6.2-.6l15-2.2c.3,0,.6-.3.8-.6l6.7-13.6Z"/>
  <path class="st1" d="M25.2,1.4c.1-.3.5-.3.6,0l6.7,13.6c.2.3.4.5.8.6l15,2.2c.3,0,.4.4.2.6l-10.9,10.6c-.2.2-.3.5-.3.8h0c0,.1,2.6,15.1,2.6,15.1,0,.3-.3.5-.5.4l-13.4-7.1c-.3-.2-.7-.2-1,0l-13.4,7.1c-.3.1-.6,0-.5-.4l2.6-15c0-.3,0-.7-.3-.9L2.5,18.4c-.2-.2,0-.6.2-.6l15-2.2c.3,0,.6-.3.8-.6L25.2,1.4Z"/>
</svg>